<svg width="46" height="41" viewBox="0 0 46 41" fill="none" xmlns="http://www.w3.org/2000/svg">
<path d="M23 40.6667C21.3334 39.3472 19.5278 38.3229 17.5834 37.5938C15.6389 36.8646 13.625 36.5 11.5417 36.5C10.0834 36.5 8.65108 36.691 7.24483 37.0729C5.83858 37.4549 4.4931 37.9931 3.20837 38.6875C2.47921 39.0695 1.77608 39.0521 1.099 38.6354C0.421916 38.2188 0.083374 37.6111 0.083374 36.8125V11.7083C0.083374 11.3264 0.17886 10.9618 0.369832 10.6146C0.560805 10.2674 0.847263 10.0069 1.22921 9.83334C2.82643 9.00001 4.4931 8.375 6.22921 7.95834C7.96532 7.54167 9.73615 7.33334 11.5417 7.33334C13.5556 7.33334 15.5261 7.59375 17.4532 8.11459C19.3802 8.63542 21.2292 9.41667 23 10.4583V35.6667C24.7709 34.5556 26.6285 33.7222 28.573 33.1667C30.5174 32.6111 32.4792 32.3333 34.4584 32.3333C35.7084 32.3333 36.9323 32.4375 38.1302 32.6458C39.3282 32.8542 40.5348 33.1667 41.75 33.5833V8.58334C42.2709 8.75695 42.783 8.93924 43.2865 9.13021C43.79 9.32119 44.2848 9.55556 44.7709 9.83334C45.1528 10.0069 45.4393 10.2674 45.6302 10.6146C45.8212 10.9618 45.9167 11.3264 45.9167 11.7083V36.8125C45.9167 37.6111 45.5782 38.2188 44.9011 38.6354C44.224 39.0521 43.5209 39.0695 42.7917 38.6875C41.507 37.9931 40.1615 37.4549 38.7552 37.0729C37.349 36.691 35.9167 36.5 34.4584 36.5C32.375 36.5 30.3612 36.8646 28.4167 37.5938C26.4723 38.3229 24.6667 39.3472 23 40.6667ZM27.1667 30.25V10.4583L37.5834 0.0416718V20.875L27.1667 30.25ZM18.8334 33.6354V13.0104C17.6875 12.5243 16.4983 12.151 15.2657 11.8906C14.033 11.6302 12.7917 11.5 11.5417 11.5C10.257 11.5 9.00698 11.6215 7.79171 11.8646C6.57643 12.1076 5.39587 12.4722 4.25004 12.9583V33.6354C5.46532 33.184 6.67192 32.8542 7.86983 32.6458C9.06775 32.4375 10.2917 32.3333 11.5417 32.3333C12.7917 32.3333 14.0157 32.4375 15.2136 32.6458C16.4115 32.8542 17.6181 33.184 18.8334 33.6354Z" fill="white"/>
</svg>
