<?xml version="1.0" encoding="UTF-8"?>
<svg version="1.1" xmlns="http://www.w3.org/2000/svg" width="100" height="100">
<path d="M0 0 C-0.51655514 4.07307042 -1.50769375 6.00236004 -4.41821289 8.87231445 C-5.13888443 9.59268387 -5.85955597 10.31305328 -6.60206604 11.05525208 C-7.38436081 11.8169017 -8.16665558 12.57855133 -8.97265625 13.36328125 C-10.16912025 14.55125557 -10.16912025 14.55125557 -11.38975525 15.76322937 C-13.93810133 18.28919543 -16.50000582 20.80089563 -19.0625 23.3125 C-20.79322936 25.02316669 -22.52305851 26.73474467 -24.25195312 28.44726562 C-28.49091514 32.64213851 -32.74109202 36.82538425 -37 41 C-35.61303734 44.1357229 -34.01114566 46.21796522 -31.56005859 48.60351562 C-30.85948334 49.29102905 -30.15890808 49.97854248 -29.43710327 50.68688965 C-28.68184357 51.41927856 -27.92658386 52.15166748 -27.1484375 52.90625 C-25.559627 54.46977895 -23.97109365 56.03358957 -22.3828125 57.59765625 C-19.87357167 60.05714574 -17.36128355 62.51335396 -14.84375 64.96435547 C-12.41576159 67.33211839 -10.00020565 69.7120105 -7.5859375 72.09375 C-6.82662933 72.82613892 -6.06732117 73.55852783 -5.28500366 74.31311035 C-4.59073273 75.00062378 -3.89646179 75.68813721 -3.18115234 76.39648438 C-2.56541351 76.99730835 -1.94967468 77.59813232 -1.3152771 78.21716309 C0 80 0 80 0 84 C-4.20289255 83.48564058 -6.16759645 82.34140228 -9.16357422 79.38574219 C-9.94723358 78.62114685 -10.73089294 77.85655151 -11.53829956 77.06878662 C-12.36870758 76.23655579 -13.1991156 75.40432495 -14.0546875 74.546875 C-15.34610153 73.26831635 -15.34610153 73.26831635 -16.66360474 71.96392822 C-18.4790743 70.15993945 -20.28933184 68.35069251 -22.09472656 66.53662109 C-24.86808056 63.75693523 -27.66702982 61.0049633 -30.46875 58.25390625 C-32.22818245 56.49901848 -33.98604989 54.74255995 -35.7421875 52.984375 C-36.58474091 52.16024109 -37.42729431 51.33610718 -38.29537964 50.48699951 C-39.06012604 49.70979553 -39.82487244 48.93259155 -40.61279297 48.13183594 C-41.29276337 47.45312439 -41.97273376 46.77441284 -42.67330933 46.07513428 C-44 44 -44 44 -43.93858337 41.50099182 C-42.84246719 38.58023094 -41.56773384 37.06046367 -39.36987305 34.85229492 C-38.60205002 34.07186325 -37.83422699 33.29143158 -37.0431366 32.48735046 C-36.20776871 31.6600795 -35.37240082 30.83280853 -34.51171875 29.98046875 C-33.65697464 29.12189774 -32.80223053 28.26332672 -31.92158508 27.3787384 C-30.11320432 25.56763686 -28.29976711 23.76157217 -26.48168945 21.96020508 C-23.69462992 19.1945751 -20.92955195 16.40825386 -18.16601562 13.61914062 C-16.40753137 11.8632991 -14.64780697 10.10869852 -12.88671875 8.35546875 C-12.05742355 7.51807663 -11.22812836 6.68068451 -10.373703 5.81791687 C-9.20778374 4.67091057 -9.20778374 4.67091057 -8.01831055 3.50073242 C-7.33737839 2.82298264 -6.65644623 2.14523285 -5.95487976 1.44694519 C-4 0 -4 0 0 0 Z " fill="#D4CEA2" transform="translate(72,8)"/>
</svg>
