<svg width="50" height="40" viewBox="0 0 50 40" fill="none" xmlns="http://www.w3.org/2000/svg">
<mask id="mask0_12_212" style="mask-type:alpha" maskUnits="userSpaceOnUse" x="0" y="0" width="50" height="40">
<rect width="50" height="40" fill="#D9D9D9"/>
</mask>
<g mask="url(#mask0_12_212)">
<path d="M12.5 36.6667C10.7639 36.6667 9.28819 36.1806 8.07292 35.2083C6.85764 34.2361 6.25 33.0556 6.25 31.6667V26.6667H12.5V3.33333H43.75V31.6667C43.75 33.0556 43.1424 34.2361 41.9271 35.2083C40.7118 36.1806 39.2361 36.6667 37.5 36.6667H12.5ZM37.5 33.3333C38.0903 33.3333 38.5851 33.1736 38.9844 32.8542C39.3837 32.5347 39.5833 32.1389 39.5833 31.6667V6.66667H16.6667V26.6667H35.4167V31.6667C35.4167 32.1389 35.6163 32.5347 36.0156 32.8542C36.4149 33.1736 36.9097 33.3333 37.5 33.3333ZM18.75 15V11.6667H37.5V15H18.75ZM18.75 20V16.6667H37.5V20H18.75ZM12.5 33.3333H31.25V30H10.4167V31.6667C10.4167 32.1389 10.6163 32.5347 11.0156 32.8542C11.4149 33.1736 11.9097 33.3333 12.5 33.3333ZM12.5 33.3333H10.4167H31.25H12.5Z" fill="white"/>
</g>
</svg>
