<?xml version="1.0" encoding="UTF-8"?>
<svg version="1.1" xmlns="http://www.w3.org/2000/svg" width="100" height="100">
<path d="M0 0 C11.17844833 -0.04626954 22.35687402 -0.08184175 33.53539848 -0.10362434 C38.72561899 -0.11407705 43.91577414 -0.12826329 49.10595703 -0.15087891 C54.11150889 -0.17255438 59.11699777 -0.18455741 64.12259293 -0.18975449 C66.03563555 -0.19345979 67.9486746 -0.20069496 69.86169052 -0.21146011 C72.53400976 -0.22590473 75.2060662 -0.22798091 77.87841797 -0.22705078 C78.67539093 -0.23424133 79.47236389 -0.24143188 80.29348755 -0.24884033 C85.77189568 -0.22810432 85.77189568 -0.22810432 88 2 C88.9472024 9.18278991 87.45092722 16.47698789 86.13671875 23.51953125 C85.94406937 24.58112961 85.75141998 25.64272797 85.55293274 26.73649597 C85.1462174 28.96340413 84.73503513 31.18950069 84.31958008 33.41479492 C83.68652822 36.81772372 83.07389154 40.22391044 82.46289062 43.63085938 C82.06371986 45.80230793 81.66337025 47.97354019 81.26171875 50.14453125 C81.08033859 51.15916946 80.89895844 52.17380768 80.71208191 53.2191925 C80.44214165 54.64173592 80.44214165 54.64173592 80.16674805 56.09301758 C80.01352585 56.92223221 79.86030365 57.75144684 79.70243835 58.60578918 C78.81060983 61.64552284 78.10001449 63.58496517 76 66 C73.07432427 66.49789717 70.72464165 66.6543298 67.79663086 66.59936523 C66.54258202 66.60527931 66.54258202 66.60527931 65.26319885 66.61131287 C62.49647336 66.61803245 59.7313929 66.58884377 56.96484375 66.55859375 C55.04578471 66.55434488 53.12672054 66.55201522 51.20765686 66.55152893 C47.1849948 66.54535907 43.1628886 66.52263617 39.14038086 66.48706055 C33.97609588 66.44175712 28.81231441 66.42703345 23.64784908 66.42332363 C19.68537906 66.41890162 15.72301544 66.40360994 11.76059151 66.3844471 C9.85594117 66.37554883 7.95127941 66.36882666 6.04661369 66.36428642 C3.38887177 66.35527435 0.7315921 66.33291122 -1.92602539 66.30639648 C-2.71828522 66.30573181 -3.51054504 66.30506714 -4.32681274 66.30438232 C-9.77082878 66.22917122 -9.77082878 66.22917122 -12 64 C-12.93354557 56.88882187 -11.46980265 49.70020123 -10.13671875 42.734375 C-9.84774467 41.17882904 -9.84774467 41.17882904 -9.55293274 39.59185791 C-9.1462641 37.41619659 -8.73508205 35.24137446 -8.31958008 33.06738281 C-7.6870876 29.74783558 -7.07409937 26.42508669 -6.46289062 23.1015625 C-6.06366188 20.97894781 -5.66330997 18.85654399 -5.26171875 16.734375 C-5.08033859 15.74677185 -4.89895844 14.7591687 -4.71208191 13.74163818 C-4.53212173 12.81337219 -4.35216156 11.8851062 -4.16674805 10.92871094 C-3.93691475 9.71486725 -3.93691475 9.71486725 -3.70243835 8.47650146 C-2.83814524 5.42936835 -1.48030745 2.79236397 0 0 Z " fill="#D5CEA3" transform="translate(12,28)"/>
<path d="M0 0 C2.02943383 -0.01937176 4.05477405 -0.08136493 6.08325195 -0.14453125 C15.63698685 -0.22130662 15.63698685 -0.22130662 18.76635742 1.78125 C20.58730197 3.89167146 21.73364258 5.64070398 21.73364258 8.48046875 C22.77933914 8.47380692 22.77933914 8.47380692 23.84616089 8.4670105 C30.40891984 8.42697289 36.97164483 8.39650433 43.53449821 8.37684441 C46.90871252 8.36639733 50.2828261 8.3522215 53.65698242 8.32958984 C57.53412576 8.3054199 61.41112535 8.29400364 65.28833008 8.28515625 C66.50293915 8.27483368 67.71754822 8.26451111 68.96896362 8.25387573 C70.08997467 8.25372467 71.21098572 8.25357361 72.3659668 8.25341797 C73.35635956 8.24897675 74.34675232 8.24453552 75.36715698 8.23995972 C77.73364258 8.48046875 77.73364258 8.48046875 79.73364258 10.48046875 C79.85864258 13.60546875 79.85864258 13.60546875 79.73364258 16.48046875 C78.31329712 16.49259903 78.31329712 16.49259903 76.86425781 16.50497437 C67.91921747 16.58262437 58.97432569 16.67041057 50.02947998 16.76799583 C45.43138619 16.81783709 40.83331403 16.8641678 36.23510742 16.90234375 C31.79351434 16.93935081 27.35210771 16.98575172 22.91067505 17.03853226 C21.22033983 17.05699456 19.52996477 17.0721323 17.83956909 17.08381271 C15.46292222 17.10081583 13.08669482 17.12988281 10.71020508 17.16162109 C10.01896042 17.16378128 9.32771576 17.16594147 8.61552429 17.16816711 C3.68945582 17.25162917 -0.55489374 18.1617139 -5.26635742 19.48046875 C-8.34524076 32.74587036 -10.91690633 46.06744492 -13.26635742 59.48046875 C-13.59635742 59.48046875 -13.92635742 59.48046875 -14.26635742 59.48046875 C-14.31265161 52.08316115 -14.34821169 44.68588468 -14.36998177 37.28846169 C-14.38042913 33.85371416 -14.39460548 30.41906558 -14.41723633 26.984375 C-14.44307805 23.03777237 -14.45282235 19.09121012 -14.46166992 15.14453125 C-14.47199249 13.9080484 -14.48231506 12.67156555 -14.49295044 11.39761353 C-14.4931015 10.25658173 -14.49325256 9.11554993 -14.4934082 7.93994141 C-14.49784943 6.93178375 -14.50229065 5.9236261 -14.50686646 4.88491821 C-13.82038097 -1.97810736 -5.19574204 0.03005129 0 0 Z " fill="#D5CEA3" transform="translate(14.266357421875,7.51953125)"/>
</svg>
