<svg width="649" height="600" viewBox="0 0 649 600" fill="none" xmlns="http://www.w3.org/2000/svg">
<g clip-path="url(#clip0_8_271)">
<path d="M591.27 480.502L538.587 402.247C538.587 402.247 618.371 430.101 609.317 480.502H591.27Z" fill="#E5E5E5"/>
<path d="M45.1624 481.021L43.1624 480.982C43.9359 458.745 46.3085 436.592 50.262 414.695C58.9104 367.814 73.2913 337.025 93.0051 323.183L94.1536 324.82C48.1018 357.154 45.1858 479.786 45.1624 481.021Z" fill="#E5E5E5"/>
<path d="M70.1624 480.543L68.1624 480.504C68.2054 478.289 69.4554 426.089 90.0051 411.662L91.1536 413.298C71.4329 427.144 70.1721 480.01 70.1624 480.543Z" fill="#E5E5E5"/>
<path d="M105.532 325.002C111.054 325.002 115.532 320.524 115.532 315.002C115.532 309.479 111.054 305.002 105.532 305.002C100.009 305.002 95.5315 309.479 95.5315 315.002C95.5315 320.524 100.009 325.002 105.532 325.002Z" fill="#4592AF"/>
<path d="M100.579 411.002C106.102 411.002 110.579 406.524 110.579 401.002C110.579 395.479 106.102 391.002 100.579 391.002C95.0565 391.002 90.5794 395.479 90.5794 401.002C90.5794 406.524 95.0565 411.002 100.579 411.002Z" fill="#4592AF"/>
<path d="M65.5011 330.996C67.3805 343 62.4822 353.737 62.4822 353.737C62.4822 353.737 54.5369 345.011 52.6576 333.007C50.7782 321.003 55.6765 310.266 55.6765 310.266C55.6765 310.266 63.6218 318.992 65.5011 330.996Z" fill="#E5E5E5"/>
<path d="M98.1883 360.15C86.6953 364.092 75.2695 361.14 75.2695 361.14C75.2695 361.14 82.4774 351.795 93.9704 347.853C105.463 343.911 116.889 346.864 116.889 346.864C116.889 346.864 109.681 356.208 98.1883 360.15Z" fill="#E5E5E5"/>
<path d="M98.5575 436.311C93.3559 437.945 87.8164 438.184 82.4933 437.005C85.8732 432.702 90.4253 429.467 95.6011 427.692C100.777 425.917 106.356 425.676 111.665 426.998C108.187 431.197 103.667 434.408 98.5575 436.311Z" fill="#E5E5E5"/>
<path d="M648 482.502H1C0.734784 482.502 0.480444 482.397 0.292908 482.209C0.105371 482.021 0 481.767 0 481.502C0 481.237 0.105371 480.982 0.292908 480.795C0.480444 480.607 0.734784 480.502 1 480.502H648C648.265 480.502 648.52 480.607 648.707 480.795C648.895 480.982 649 481.237 649 481.502C649 481.767 648.895 482.021 648.707 482.209C648.52 482.397 648.265 482.502 648 482.502Z" fill="#CBCBCB"/>
<path d="M409.792 528.602L401.611 549.895L315.587 528.472L327.661 497.045L409.792 528.602Z" fill="#FFB7B7"/>
<path d="M432.519 531.101L406.14 599.759L405.271 599.425C398.184 596.702 392.469 591.275 389.382 584.338C386.296 577.401 386.092 569.523 388.814 562.435L388.815 562.433L404.926 520.499L432.519 531.101Z" fill="#2F2E41"/>
<path d="M279.075 261.992L241.587 265.502L239.727 377.044C240.224 382.511 242.842 387.565 247.02 391.125C251.198 394.685 256.604 396.467 262.08 396.09L285.848 394.453L279.075 261.992Z" fill="#E5E5E5"/>
<path d="M411.237 256.502L385.587 256.172L384.067 388.707C389.735 388.897 395.382 387.916 400.654 385.826C405.926 383.736 410.712 380.583 414.711 376.562C418.711 372.541 421.839 367.739 423.901 362.455C425.962 357.172 426.913 351.52 426.694 345.853L411.237 256.502Z" fill="#E5E5E5"/>
<path d="M262.401 435.791C261.793 439.636 260.911 443.431 259.762 447.15C258.468 450.79 256.469 454.156 255.286 457.833C251.514 469.554 256.743 482.623 265.096 491.67C272.339 499.485 281.689 505.037 292.017 507.656C299.552 509.552 307.387 509.824 315.152 510.088C336.655 510.817 358.711 511.469 379.086 504.559C385.523 502.322 391.741 499.497 397.661 496.12C399.53 495.23 401.176 493.933 402.48 492.325C404.034 490.113 404.233 487.244 404.22 484.54C404.174 475.425 402.326 466.355 402.765 457.25C403.008 452.207 403.952 447.168 403.487 442.14C402.844 436.43 400.452 431.058 396.638 426.759C392.825 422.461 387.776 419.446 382.183 418.128C376.403 416.887 370.408 417.563 364.523 418.129C349.249 419.596 333.909 420.282 318.564 420.184C302.885 420.084 287.304 417.69 271.703 417.44C267.09 417.366 267.183 418.789 265.714 423.254C264.361 427.363 263.255 431.55 262.401 435.791Z" fill="#2F2E41"/>
<path d="M201.092 428.383C196.876 427.323 192.532 426.861 188.187 427.011C183.623 427.263 179.164 428.484 175.107 430.593C171.051 432.702 167.49 435.651 164.662 439.242C161.833 442.834 159.802 446.987 158.702 451.424C157.603 455.862 157.461 460.483 158.285 464.979C159.338 469.85 161.059 474.553 163.399 478.953C166.821 485.898 170.926 492.827 177.261 497.278C180.968 499.882 185.257 501.505 189.496 503.101L222.864 515.672C227.773 517.521 232.683 519.371 237.64 521.086C262.546 529.694 288.513 534.857 314.817 536.429C322.83 536.906 330.964 537.038 338.78 535.214C340.635 534.782 342.614 534.136 343.688 532.563C344.324 531.455 344.699 530.216 344.784 528.941L346.838 514.567C347.127 512.543 347.405 510.412 346.663 508.507C345.722 506.091 343.365 504.572 341.117 503.28C319.179 490.68 293.564 483.729 275.099 466.436C270.752 462.365 267.114 455.912 261.833 453.147C255.844 450.011 248.79 448.221 242.599 445.331C229.066 439.014 215.76 431.754 201.092 428.383Z" fill="#2F2E41"/>
<path opacity="0.1" d="M234.406 447.762C246.2 451.457 295.996 477.062 304.532 486.002C303.387 486.414 264.571 464.66 263.406 464.311C252.818 461.133 242.172 457.935 232.117 453.284C230.095 452.349 218.977 447.952 219.48 445.4C220.048 442.52 232.312 447.106 234.406 447.762Z" fill="black"/>
<path d="M305.587 224.502L273.831 248.613C273.831 248.613 240.322 249.662 241.454 271.082C242.587 292.502 255.998 393.919 255.998 393.919L258.907 428.815L314.1 444.541C343.922 453.038 375.428 453.714 405.587 446.502L399.028 411.494C399.028 411.494 425.587 252.502 409.587 245.502C393.587 238.502 383.587 240.502 383.587 240.502L363.531 223.002L305.587 224.502Z" fill="#E5E5E5"/>
<path d="M399.587 185.555C399.587 216.856 370.644 212.122 334.941 212.122C299.238 212.122 270.295 216.856 270.295 185.555C270.295 154.254 284.433 98.7707 334.941 98.7707C387.189 98.7707 399.587 154.254 399.587 185.555Z" fill="#2F2E41"/>
<path d="M368.545 196.163C385.533 179.175 385.533 151.632 368.545 134.644C351.557 117.656 324.014 117.656 307.026 134.644C290.039 151.632 290.038 179.175 307.026 196.163C324.014 213.151 351.557 213.151 368.545 196.163Z" fill="#FFB7B7"/>
<path d="M284.464 164.302H301.669L309.26 143.049L310.778 164.302H319.001L323.429 151.904L324.314 164.302H385.418C385.418 152.089 380.566 140.376 371.93 131.74C363.294 123.105 351.582 118.253 339.369 118.253H330.513C318.3 118.253 306.587 123.105 297.952 131.74C289.316 140.376 284.464 152.089 284.464 164.302Z" fill="#2F2E41"/>
<path d="M378.587 229.502H291.587V334.502H378.587V229.502Z" fill="#4592AF"/>
<path d="M296.381 527.602L304.563 548.895L390.587 527.472L378.512 496.045L296.381 527.602Z" fill="#FFB7B7"/>
<path d="M301.247 519.499L317.359 561.433L317.359 561.435C320.082 568.523 319.877 576.401 316.791 583.338C313.705 590.275 307.989 595.702 300.902 598.425L300.034 598.759L273.654 530.101L301.247 519.499Z" fill="#2F2E41"/>
<path d="M468.335 420.232C475.245 418.499 482.409 418.01 489.492 418.787C495.148 419.41 500.975 420.984 505.105 424.899C510.131 429.664 511.746 437.033 511.881 443.957C512.102 457.749 507.527 471.19 498.939 481.984C496.842 484.714 494.348 487.115 491.54 489.107C488.511 491.002 485.282 492.558 481.913 493.746L407.185 523.221C387.526 530.975 367.797 538.752 347.292 543.864C346.177 544.402 344.894 544.475 343.725 544.068C342.556 543.66 341.597 542.804 341.059 541.689C341.042 541.655 341.026 541.621 341.011 541.587C334.463 532.234 328.971 522.187 324.633 511.627C324.427 511.376 324.285 511.079 324.219 510.761C324.152 510.444 324.163 510.115 324.251 509.803C324.338 509.491 324.5 509.204 324.722 508.967C324.943 508.731 325.219 508.551 325.525 508.443L378.38 478.074C382.166 475.899 385.995 473.692 389.138 470.662C391.423 468.448 393.293 465.844 394.662 462.972C395.757 460.684 395.859 455.284 397.259 453.592C398.629 451.936 403.316 451.804 405.481 451.153C408.534 450.217 411.524 449.087 414.432 447.769C426.256 442.479 436.784 434.794 448.118 428.601C454.475 424.966 461.269 422.154 468.335 420.232Z" fill="#2F2E41"/>
<path opacity="0.1" d="M438.37 442.912C429.289 449.732 417.531 456.002 408.531 463.002C405.46 465.391 354.255 494.178 353.531 498.002C361.928 499.416 415.414 461.998 423.067 458.265C430.72 454.531 437.503 449.266 444.225 444.039C445.939 442.707 453.199 438.703 448.281 437.215C445.511 436.377 440.415 441.548 438.37 442.912Z" fill="black"/>
<path d="M601.587 179.715C618.844 179.715 632.835 165.725 632.835 148.467C632.835 131.21 618.844 117.219 601.587 117.219C584.329 117.219 570.339 131.21 570.339 148.467C570.339 165.725 584.329 179.715 601.587 179.715Z" fill="#F1F1F1"/>
<path d="M543.755 185.312C555.861 185.312 565.675 175.498 565.675 163.392C565.675 151.286 555.861 141.472 543.755 141.472C531.649 141.472 521.835 151.286 521.835 163.392C521.835 175.498 531.649 185.312 543.755 185.312Z" fill="#F1F1F1"/>
<path d="M142.213 171.013C151.92 171.013 159.789 163.144 159.789 153.437C159.789 143.73 151.92 135.861 142.213 135.861C132.506 135.861 124.637 143.73 124.637 153.437C124.637 163.144 132.506 171.013 142.213 171.013Z" fill="#F1F1F1"/>
<path d="M171.15 182.832C177.96 182.832 183.48 177.312 183.48 170.502C183.48 163.693 177.96 158.173 171.15 158.173C164.341 158.173 158.821 163.693 158.821 170.502C158.821 177.312 164.341 182.832 171.15 182.832Z" fill="#F1F1F1"/>
<path d="M341.654 26.8705C349.074 26.8705 355.089 20.8554 355.089 13.4353C355.089 6.01517 349.074 0 341.654 0C334.234 0 328.218 6.01517 328.218 13.4353C328.218 20.8554 334.234 26.8705 341.654 26.8705Z" fill="#F1F1F1"/>
<path opacity="0.17" d="M261.587 296.502L262.788 287.232C262.788 287.232 307.587 290.502 300.587 301.502C293.587 312.502 276.587 313.502 276.587 313.502L261.587 296.502Z" fill="#2F2E41"/>
<path d="M295.403 256.194C297.969 256.477 300.441 257.324 302.641 258.675C304.841 260.026 306.714 261.847 308.127 264.008C309.415 265.979 310.29 268.191 310.702 270.51C311.113 272.828 311.051 275.206 310.521 277.5C309.99 279.794 309.001 281.958 307.613 283.86C306.225 285.762 304.467 287.365 302.444 288.571C301.703 289.009 300.929 289.389 300.129 289.709L272.593 373.936C271.795 375.598 270.676 377.086 269.301 378.314C267.927 379.543 266.323 380.487 264.582 381.093C262.841 381.7 260.997 381.956 259.156 381.847C257.316 381.738 255.515 381.267 253.858 380.46C252.2 379.653 250.719 378.526 249.498 377.145C248.277 375.763 247.342 374.154 246.745 372.41C246.148 370.665 245.902 368.82 246.021 366.981C246.14 365.141 246.621 363.343 247.437 361.69L276.721 278.397C275.923 275.641 275.817 272.731 276.412 269.925C277.007 267.118 278.284 264.501 280.132 262.306C281.979 260.111 284.338 258.405 287.002 257.339C289.666 256.273 292.551 255.88 295.403 256.194Z" fill="#FFB7B7"/>
<path d="M261.998 288.022C261.998 288.022 277.776 314.979 300.587 301.502L278.48 386.1H259.854L240.587 382.502L245.982 347.549L261.998 288.022Z" fill="#E5E5E5"/>
<path d="M374.657 306.447L361.587 288.502C361.587 288.502 367.869 269.889 392.228 276.695C392.228 276.695 407.728 311.392 374.657 306.447Z" fill="#E5E5E5"/>
<path opacity="0.17" d="M374.657 306.447L361.587 288.502C361.587 288.502 367.869 269.889 392.228 276.695C392.228 276.695 407.728 311.392 374.657 306.447Z" fill="#2F2E41"/>
<path d="M378.118 243.751C381.889 245.504 384.905 248.552 386.618 252.341C388.331 256.13 388.627 260.408 387.452 264.397L416.736 347.69C417.553 349.343 418.034 351.141 418.153 352.981C418.272 354.821 418.026 356.666 417.429 358.41C416.832 360.155 415.897 361.764 414.676 363.146C413.455 364.527 411.973 365.654 410.316 366.461C408.658 367.268 406.857 367.739 405.017 367.848C403.176 367.957 401.333 367.7 399.592 367.094C397.851 366.488 396.246 365.543 394.872 364.315C393.497 363.086 392.378 361.598 391.581 359.936L364.044 275.709C363.245 275.389 362.47 275.009 361.729 274.571C359.706 273.365 357.948 271.762 356.56 269.86C355.173 267.958 354.183 265.794 353.653 263.5C353.122 261.206 353.06 258.828 353.472 256.51C353.883 254.191 354.758 251.979 356.046 250.008C357.459 247.847 359.333 246.026 361.533 244.675C363.733 243.324 366.204 242.477 368.771 242.195C371.971 241.832 375.208 242.371 378.118 243.751Z" fill="#FFB7B7"/>
<path d="M361.587 288.502C361.587 288.502 383.152 301.587 392.228 276.695L422.616 356.709L413.587 372.502L412.281 372.611C406.894 373.06 401.478 372.195 396.5 370.089C391.521 367.984 387.127 364.702 383.697 360.524C376.7 352.004 371.936 341.874 369.837 331.05L361.587 288.502Z" fill="#E5E5E5"/>
</g>
<defs>
<clipPath id="clip0_8_271">
<rect width="649" height="599.759" fill="white"/>
</clipPath>
</defs>
</svg>
