<svg width="89" height="89" viewBox="0 0 89 89" fill="none" xmlns="http://www.w3.org/2000/svg">
<path d="M44.8854 74.1667C43.2785 74.1667 41.826 73.7804 40.5281 73.0078C39.2302 72.2353 38.2104 71.2 37.4688 69.9021C35.4292 69.9021 33.6832 69.1759 32.2307 67.7234C30.7783 66.271 30.0521 64.525 30.0521 62.4854V49.3208C26.4056 46.9104 23.4852 43.7274 21.2911 39.7719C19.097 35.8163 18 31.5208 18 26.8854C18 19.4069 20.6113 13.0564 25.8339 7.83385C31.0564 2.61128 37.4069 0 44.8854 0C52.3639 0 58.7144 2.61128 63.937 7.83385C69.1595 13.0564 71.7708 19.4069 71.7708 26.8854C71.7708 31.6444 70.6738 35.9708 68.4797 39.8646C66.2856 43.7583 63.3653 46.9104 59.7188 49.3208V62.4854C59.7188 64.525 58.9925 66.271 57.5401 67.7234C56.0877 69.1759 54.3417 69.9021 52.3021 69.9021C51.5604 71.2 50.5406 72.2353 49.2427 73.0078C47.9448 73.7804 46.4924 74.1667 44.8854 74.1667ZM37.4688 62.4854H52.3021V59.1479H37.4688V62.4854ZM37.4688 55.4396H52.3021V51.9167H37.4688V55.4396ZM36.7271 44.5H42.1042V34.4875L33.9458 26.3292L37.8396 22.4354L44.8854 29.4813L51.9313 22.4354L55.825 26.3292L47.6667 34.4875V44.5H53.0438C56.3813 42.8931 59.1007 40.529 61.2021 37.4078C63.3035 34.2866 64.3542 30.7792 64.3542 26.8854C64.3542 21.4465 62.4691 16.842 58.699 13.0719C54.9288 9.30174 50.3243 7.41667 44.8854 7.41667C39.4465 7.41667 34.842 9.30174 31.0719 13.0719C27.3017 16.842 25.4167 21.4465 25.4167 26.8854C25.4167 30.7792 26.4674 34.2866 28.5688 37.4078C30.6701 40.529 33.3896 42.8931 36.7271 44.5Z" fill="#E5E5CB"/>
</svg>
